<svg id="SvgjsSvg1001" width="288" height="288" xmlns="http://www.w3.org/2000/svg" version="1.1" xmlns:xlink="http://www.w3.org/1999/xlink" xmlns:svgjs="http://svgjs.com/svgjs"><defs id="SvgjsDefs1002"></defs><g id="SvgjsG1008" transform="matrix(1,0,0,1,0,0)"><svg xmlns="http://www.w3.org/2000/svg" width="288" height="288" data-name="Layer 1" viewBox="0 0 1011.007 761.966"><polygon fill="#3f3d56" points="666.054 432.15 559.723 759.423 215.598 759.423 109.267 432.15 387.661 229.882 666.054 432.15" class="color3f3d56 svgShape"></polygon><polygon fill="#f2f2f2" points="391.83 532.363 390.134 532.363 390.134 530.667 389.804 530.667 389.804 532.363 388.108 532.363 388.108 532.693 389.804 532.693 389.804 534.389 390.134 534.389 390.134 532.693 391.83 532.693 391.83 532.363" class="colorf2f2f2 svgShape"></polygon><polygon fill="#f2f2f2" points="372.289 634.72 370.593 634.72 370.593 633.024 370.263 633.024 370.263 634.72 368.567 634.72 368.567 635.051 370.263 635.051 370.263 636.746 370.593 636.746 370.593 635.051 372.289 635.051 372.289 634.72" class="colorf2f2f2 svgShape"></polygon><polygon fill="#f2f2f2" points="483.952 665.427 482.256 665.427 482.256 663.732 481.925 663.732 481.925 665.427 480.23 665.427 480.23 665.758 481.925 665.758 481.925 667.454 482.256 667.454 482.256 665.758 483.952 665.758 483.952 665.427" class="colorf2f2f2 svgShape"></polygon><circle cx="464.411" cy="584.637" r="3.722" fill="#ff6584" class="colorff6584 svgShape"></circle><circle cx="173.294" cy="422.575" r="6.514" fill="#f2f2f2" class="colorf2f2f2 svgShape"></circle><path fill="#f2f2f2" d="M268.63836,698.08462l-.96639-.21766a219.97681,219.97681,0,0,1,400.77492-68.56282,218.21418,218.21418,0,0,1,28.19553,67.97805l-.96542.21959C672.86722,597.35044,585.09223,527.40333,482.22358,527.40333,380.70294,527.40333,290.87739,599.185,268.63836,698.08462Z" transform="translate(-94.496 -69.017)" class="colorf2f2f2 svgShape"></path><rect width="9.832" height="388.345" x="502.584" y="371.932" fill="#f2f2f2" class="colorf2f2f2 svgShape"></rect><path fill="#d6d5e6" d="M697.64573,490.43859c.62586,135.79465-94.91286,246.32062-94.91286,246.32062s-96.55343-109.64064-97.17929-245.43529S600.46644,245.0033,600.46644,245.0033,697.01987,354.644,697.64573,490.43859Z" transform="translate(-94.496 -69.017)" class="color6c63ff svgShape"></path><rect width="5.467" height="215.931" x="291.847" y="543.984" fill="#f2f2f2" class="colorf2f2f2 svgShape"></rect><path fill="#d6d5e6" d="M442.2607,640.519c.348,75.50562-52.7742,136.96114-52.7742,136.96114s-53.68641-60.96326-54.0344-136.46887,52.7742-136.96114,52.7742-136.96114S441.9127,565.01337,442.2607,640.519Z" transform="translate(-94.496 -69.017)" class="color6c63ff svgShape"></path><path d="M442.2607,640.519c.348,75.50562-52.7742,136.96114-52.7742,136.96114s-53.68641-60.96326-54.0344-136.46887,52.7742-136.96114,52.7742-136.96114S441.9127,565.01337,442.2607,640.519Z" opacity=".1" transform="translate(-94.496 -69.017)" fill="#000000" class="color000 svgShape"></path><rect width="5.467" height="215.931" x="220.781" y="543.984" fill="#f2f2f2" class="colorf2f2f2 svgShape"></rect><path fill="#d6d5e6" d="M371.19487,640.519c.348,75.50562-52.7742,136.96114-52.7742,136.96114s-53.68641-60.96326-54.0344-136.46887,52.7742-136.96114,52.7742-136.96114S370.84687,565.01337,371.19487,640.519Z" transform="translate(-94.496 -69.017)" class="color6c63ff svgShape"></path><polygon fill="#f2f2f2" points="299.708 313.69 298.013 313.69 298.013 311.994 297.682 311.994 297.682 313.69 295.986 313.69 295.986 314.021 297.682 314.021 297.682 315.716 298.013 315.716 298.013 314.021 299.708 314.021 299.708 313.69" class="colorf2f2f2 svgShape"></polygon><polygon fill="#f2f2f2" points="280.167 416.047 278.472 416.047 278.472 414.352 278.141 414.352 278.141 416.047 276.445 416.047 276.445 416.378 278.141 416.378 278.141 418.074 278.472 418.074 278.472 416.378 280.167 416.378 280.167 416.047" class="colorf2f2f2 svgShape"></polygon><polygon fill="#f2f2f2" points="391.83 446.755 390.134 446.755 390.134 445.059 389.804 445.059 389.804 446.755 388.108 446.755 388.108 447.085 389.804 447.085 389.804 448.781 390.134 448.781 390.134 447.085 391.83 447.085 391.83 446.755" class="colorf2f2f2 svgShape"></polygon><circle cx="372.289" cy="365.965" r="3.722" fill="#ff6584" class="colorff6584 svgShape"></circle><path fill="#3f3d56" d="M661.57747,427.02807a76.31445,76.31445,0,1,1,35.4083,28.42978,24.68561,24.68561,0,1,1-35.4083-28.42978Z" transform="translate(-94.496 -69.017)" class="color3f3d56 svgShape"></path><ellipse cx="724.773" cy="385.369" fill="#d6d5e6" rx="4.431" ry="32.6" transform="rotate(-30 548.738 527.194)" class="color6c63ff svgShape"></ellipse><ellipse cx="724.773" cy="385.369" fill="#d6d5e6" rx="32.6" ry="4.431" transform="rotate(-60 617.755 432.697)" class="color6c63ff svgShape"></ellipse><circle cx="79.311" cy="719.411" r="40.012" fill="#3f3d56" class="color3f3d56 svgShape"></circle><circle cx="79.311" cy="666.371" r="28.846" fill="#3f3d56" class="color3f3d56 svgShape"></circle><circle cx="79.311" cy="621.706" r="20.471" fill="#3f3d56" class="color3f3d56 svgShape"></circle><path fill="#3f3d56" d="M94.49648,830.37008q78.30294-10.21368,150.57312-17.36456l-18.53321-31.07295c6.44062-1.793,34.33437,16.19334,34.33437,16.19334l-23.55712-89.86162c32.19549,3.61341,47.16548,95.26678,47.16548,95.26678l36.50923-30.526-17.98373,34.57517c147.433-12.87859,274.64958-16.84842,381.58615-15.85539l-15.86261-26.5952c6.44063-1.793,34.33438,16.19334,34.33438,16.19334L679.50541,691.4614c32.1955,3.61341,47.16549,95.26678,47.16549,95.26678l36.50923-30.526L744.13251,792.823c89.62285,2.49619,162.64824,8.43023,218.98372,14.89628-15.81948-41.3318-71.12741-81.08857-71.12741-81.08857,42.53834,11.10646,64.66132,29.172,76.10745,45.91249,1.69389-50.79716-2.845-145.06251-45.93256-249.84766,0,0,85.76236,161.77722,72.81789,269.58618l-1.64574,19.151c74.69135,9.8005,112.16766,19.55036,112.16766,19.55036Z" transform="translate(-94.496 -69.017)" class="color3f3d56 svgShape"></path><path fill="#a0616a" d="M951.76146 723.27379l-4.94268 56.84081-22.24206 4.94268-4.94268-14.828s8.64969-40.7771 8.64969-48.19112zM889.978 683.73237s9.88536 24.71339 13.59237 27.18473-11.121 34.59875-11.121 34.59875l-22.242-3.707s7.414-25.94906 1.23567-40.7771z" transform="translate(-94.496 -69.017)" class="colora0616a svgShape"></path><path fill="#2f2e41" d="M896.77416 697.94257s9.26752 3.08917 12.97453 16.68154 3.707 14.828 3.707 14.828l-6.17835 13.59237h-3.707s-6.17835 21.00638-4.94268 28.4204-8.64969 35.83442-25.94906 34.59875-13.59237-22.24205-13.59237-22.24205l8.64969-43.24844s0-11.121 2.47134-11.121 22.242 3.707 22.242 3.707v3.707S906.65951 717.71328 896.77416 697.94257zM928.28373 773.93625v-7.414s25.94906 3.707 25.94906 7.414v8.64969s22.24206 46.95544-2.47133 46.95544-29.65608-9.88535-29.65608-9.88535V806.06366s-12.35669-6.17835-12.35669-9.88536 12.05815-36.45339 12.05815-36.45339S922.10538 778.87893 928.28373 773.93625z" transform="translate(-94.496 -69.017)" class="color2f2e41 svgShape"></path><circle cx="863.443" cy="53.721" r="39.541" fill="#a0616a" class="colora0616a svgShape"></circle><path fill="#a0616a" d="M973.38567,153.01225S968.443,176.49,968.443,178.96132s-23.47773,13.59236-23.47773,13.59236l-21.00638-3.707-7.414-22.242s12.3567-18.535,12.3567-25.94906Z" transform="translate(-94.496 -69.017)" class="colora0616a svgShape"></path><path fill="#d0cde1" d="M970.07751,169.30182S957.322,190.08234,938.78692,183.904a25.56178,25.56178,0,0,1-18.13135-23.89509l-60.9515,21.42375,11.121,90.20388-9.88535,105.03192,7.414,13.59237H977.09268s3.707-18.53505,4.94268-18.53505,3.707-3.707,2.47134-4.94268-3.707-2.47134-2.47134-6.17835,2.47134-44.4841,2.47134-44.4841l37.07009-107.50326Z" transform="translate(-94.496 -69.017)" class="colord0cde1 svgShape"></path><path fill="#a0616a" d="M1017.252 404.471L995.00989 434.1271s-3.707-30.89174-8.64968-32.12741L998.7169 393.35zM770.118 380.9933S736.75494 401.99969 740.462 415.592s42.01276-23.47772 42.01276-24.71339S770.118 380.9933 770.118 380.9933z" transform="translate(-94.496 -69.017)" class="colora0616a svgShape"></path><path fill="#2f2e41" d="M977.71052 380.9933h2.47134l3.707 17.29938s19.77071 17.29937 9.88535 44.48411L974.00351 572.5221l-2.47134 150.75169-22.242 6.17835-24.7134-4.94268-6.17834-201.41415s-8.64969-18.535-4.94268-24.71339-1.23567-4.94268-1.23567-4.94268L886.271 565.10808s8.64969 23.47772 0 30.89174c0 0 1.23567 3.707 0 4.94268s-7.414 6.17835-4.94267 8.64969 3.707 0 3.707 3.707 12.3567 34.59875 7.414 74.14017l-16.0637 24.7134-14.828-8.64969-27.18473-76.61152s6.17835-11.121 0-13.59236-7.414-4.94268-4.94268-8.64969 2.47134-16.06371-1.23567-22.24206 0-16.0637 0-16.0637l13.59237-124.80263s-6.17835-33.36308 14.828-50.66246l3.707-13.59237S891.21364 399.52835 977.71052 380.9933zM992.23 90.88114s-12.55425-27.20089-36.61658-20.92376-37.66277 15.69282-38.709 25.10851.5231 23.53923.5231 23.53923 2.61547-19.35447 19.35448-15.16972 42.89371 1.04619 42.89371 1.04619l4.18475 37.66276s4.70784-6.80022 9.93878-2.61547S1008.969 99.25065 992.23 90.88114z" transform="translate(-94.496 -69.017)" class="color2f2e41 svgShape"></path><path fill="#d0cde1" d="M1003.04175 208.61739h18.535s16.06371 13.59236 14.828 39.54143l8.64968 72.90451s0 35.83442-14.828 61.78348l-16.06371 30.89174s-6.17835-17.29938-24.71339-14.828l9.88536-25.94906V366.7831s3.707-4.94268 3.707-6.17835-4.94268-1.23567-1.23567-3.707 7.414-27.18474 7.414-27.18474-1.23567-4.94268-2.47134-6.17835 1.23567-4.94267 1.23567-4.94267l-2.47134-3.707-16.0637-60.54782zM880.71045 177.72565l-21.00638 3.707s-12.3567 12.35669-17.29938 27.18473l-9.88535 44.48411-16.06371 32.12741s-18.535 18.535-32.12741 60.54781l-19.77071 37.07009 21.00638 12.35669s58.07647-67.96183 65.49049-91.43955l32.12741-61.78348z" transform="translate(-94.496 -69.017)" class="colord0cde1 svgShape"></path></svg></g></svg>